<?xml version="1.0" encoding="UTF-8" standalone="no"?>
<!-- Generator: Adobe Illustrator 16.0.0, SVG Export Plug-In . SVG Version: 6.00 Build 0)  -->

<svg
   xmlns:dc="http://purl.org/dc/elements/1.1/"
   xmlns:cc="http://creativecommons.org/ns#"
   xmlns:rdf="http://www.w3.org/1999/02/22-rdf-syntax-ns#"
   xmlns:svg="http://www.w3.org/2000/svg"
   xmlns="http://www.w3.org/2000/svg"
   xmlns:sodipodi="http://sodipodi.sourceforge.net/DTD/sodipodi-0.dtd"
   xmlns:inkscape="http://www.inkscape.org/namespaces/inkscape"
   version="1.1"
   id="Layer_1"
   x="0px"
   y="0px"
   width="235"
   height="135"
   viewBox="0 0 235 135"
   enable-background="new 0 0 350 280"
   xml:space="preserve"
   inkscape:version="0.91 r13725"
   sodipodi:docname="HAWCv2a.svg"
   inkscape:export-filename="/Users/shapiroaj4/Desktop/HAWC-800.png"
   inkscape:export-xdpi="544.88593"
   inkscape:export-ydpi="544.88593"><metadata
     id="metadata3674"><rdf:RDF><cc:Work
         rdf:about=""><dc:format>image/svg+xml</dc:format><dc:type
           rdf:resource="http://purl.org/dc/dcmitype/StillImage" /><dc:title></dc:title></cc:Work></rdf:RDF></metadata><defs
     id="defs3672" /><sodipodi:namedview
     pagecolor="#ffffff"
     bordercolor="#666666"
     borderopacity="0"
     objecttolerance="10"
     gridtolerance="10"
     guidetolerance="10"
     inkscape:pageopacity="0"
     inkscape:pageshadow="2"
     inkscape:window-width="640"
     inkscape:window-height="480"
     id="namedview3670"
     showgrid="false"
     fit-margin-bottom="0"
     inkscape:current-layer="Layer_1"
     showborder="true"
     borderlayer="false"
     inkscape:showpageshadow="false" /><polygon
     points="234.667,137.99 234.667,137.99 234.665,137.987 "
     id="polygon3528"
     style="fill:#2bb573"
     transform="translate(-58.615431,-69.885411)" /><polygon
     points="234.667,137.99 234.667,137.99 234.665,137.987 "
     id="polygon3530"
     style="opacity:0.4;fill:#2bb573"
     transform="translate(-58.615431,-69.885411)" /><polygon
     points="232.142,136.756 232.144,136.754 232.142,136.759 "
     id="polygon3532"
     style="fill:#2bb573"
     transform="translate(-58.615431,-69.885411)" /><polygon
     points="232.142,136.756 232.144,136.754 232.142,136.759 "
     id="polygon3534"
     style="opacity:0.4;fill:#2bb573"
     transform="translate(-58.615431,-69.885411)" /><polygon
     points="235.382,136.532 235.382,136.532 235.382,136.532 "
     id="polygon3536"
     style="fill:#212e6f"
     transform="translate(-58.615431,-69.885411)" /><polygon
     points="235.382,136.532 235.382,136.532 235.382,136.532 "
     id="polygon3538"
     style="opacity:0.4;fill:#2bb573"
     transform="translate(-58.615431,-69.885411)" /><polygon
     points="232.858,135.298 232.858,135.298 232.858,135.298 "
     id="polygon3540"
     style="fill:#ed792c; opacity:0"
     transform="translate(-58.615431,-69.885411)" /><polygon
     points="232.858,135.298 232.858,135.298 232.858,135.298 "
     id="polygon3542"
     style="opacity:0.4;fill:#2bb573"
     transform="translate(-58.615431,-69.885411)" /><polygon
     points="217.212,136.951 230.404,133.573 239.233,122.4 232.344,135.785 232.344,135.787 232.344,135.787 232.118,136.232 "
     id="polygon3544"
     style="fill:#ed792c; opacity:0"
     transform="translate(-58.615431,-69.885411)" /><g
     id="g3546" style="opacity:0"
     transform="translate(-58.615431,-69.885411)"><polygon
       points="242.623,150.028 237.701,137.329 241.666,123.654 234.775,137.04 234.547,137.481 "
       id="polygon3548"
       style="fill:#c1c1c1;" /><path
       d="m 240.764,136.14 c -0.65,-0.335 -1.454,-0.078 -1.784,0.57 -0.339,0.65 -0.08,1.451 0.566,1.787 0.651,0.332 1.452,0.075 1.786,-0.574 0.334,-0.652 0.079,-1.451 -0.568,-1.783 z"
       id="path3550"
       inkscape:connector-curvature="0"
       style="fill:#c1c1c1" /></g><path
     d="m 171.04857,60.53759 c -0.652,-0.331 -1.451,-0.079 -1.786,0.573 -0.336,0.65 -0.081,1.451 0.573,1.783 0.646,0.336 1.449,0.083 1.783,-0.567 0.331,-0.651 0.077,-1.454 -0.57,-1.789 z"
     id="path3552"
     inkscape:connector-curvature="0"
     style="fill:#ed792c; opacity:0" /><g
     id="g3554"
     transform="translate(-58.615431,-69.885411)" style="opacity:0"><linearGradient
       id="SVGID_1_"
       gradientUnits="userSpaceOnUse"
       x1="216.2803"
       y1="144.8008"
       x2="239.6875"
       y2="144.8008"
       gradientTransform="matrix(0.9998,0.0212,-0.0212,0.9998,4.0913,-4.7607)"><stop
         offset="0"
         style="stop-color:#2BB573"
         id="stop3557" /><stop
         offset="1"
         style="stop-color:#8CC53F"
         id="stop3559" /></linearGradient><polygon
       points="217.37,139.404 230.944,141.489 240.529,151.326 232.392,138.681 "
       id="polygon3561"
       style="fill:url(#SVGID_1_)" /><linearGradient
       id="SVGID_2_"
       gradientUnits="userSpaceOnUse"
       x1="227.58501"
       y1="143.4258"
       x2="230.2354"
       y2="143.4258"
       gradientTransform="matrix(0.9998,0.0212,-0.0212,0.9998,4.0913,-4.7607)"><stop
         offset="0"
         style="stop-color:#2BB573"
         id="stop3564" /><stop
         offset="1"
         style="stop-color:#8CC53F"
         id="stop3566" /></linearGradient><path
       d="m 230.522,142.314 c -0.65,-0.339 -1.451,-0.081 -1.785,0.572 -0.336,0.646 -0.077,1.447 0.573,1.781 0.648,0.333 1.446,0.078 1.783,-0.571 0.336,-0.648 0.081,-1.451 -0.571,-1.782 z"
       id="path3568"
       inkscape:connector-curvature="0"
       style="fill:url(#SVGID_2_)" /></g><g
     id="g3570"
     transform="translate(-58.615431,-69.885411)" style="fill:#b1c111; opacity:0" ><path
       d="m 236.129,148.537 c -0.247,0.063 -0.494,0.112 -0.744,0.164 -0.112,0.021 -0.225,0.051 -0.337,0.07 -0.237,0.039 -0.471,0.06 -0.705,0.088 -0.128,0.015 -0.252,0.035 -0.381,0.042 -0.226,0.021 -0.449,0.017 -0.673,0.023 -0.137,0.002 -0.271,0.012 -0.41,0.011 -0.235,-0.007 -0.471,-0.027 -0.702,-0.047 -0.125,-0.008 -0.248,-0.012 -0.368,-0.022 -0.238,-0.028 -0.47,-0.069 -0.702,-0.108 -0.123,-0.023 -0.239,-0.035 -0.36,-0.063 -0.194,-0.038 -0.384,-0.092 -0.577,-0.146 -0.156,-0.038 -0.319,-0.071 -0.478,-0.12 -0.147,-0.045 -0.29,-0.104 -0.437,-0.156 -0.2,-0.067 -0.401,-0.133 -0.6,-0.212 -0.115,-0.05 -0.232,-0.106 -0.349,-0.16 -0.219,-0.1 -0.44,-0.198 -0.657,-0.31 -1.82,-0.952 -3.385,-2.383 -4.509,-4.183 l 1.585,-0.532 -2.489,-1.241 -0.951,-0.472 -0.838,1.691 -0.871,1.743 1.503,-0.501 c 0.126,0.223 0.246,0.445 0.382,0.66 0.014,0.013 0.022,0.036 0.032,0.053 l 0.002,0 c 1.162,1.767 2.694,3.226 4.461,4.281 0.066,0.042 0.129,0.089 0.193,0.127 0.117,0.067 0.231,0.116 0.348,0.176 0.219,0.122 0.442,0.235 0.667,0.342 0.203,0.099 0.409,0.186 0.615,0.271 0.205,0.087 0.413,0.168 0.62,0.247 0.229,0.077 0.453,0.151 0.682,0.223 0.204,0.061 0.404,0.117 0.611,0.171 0.229,0.058 0.465,0.111 0.697,0.16 0.213,0.039 0.423,0.081 0.639,0.106 0.226,0.037 0.452,0.067 0.679,0.09 0.229,0.023 0.456,0.039 0.686,0.051 0.217,0.011 0.431,0.018 0.646,0.016 0.239,0.004 0.479,-0.004 0.718,-0.017 0.213,-0.006 0.418,-0.021 0.628,-0.045 0.241,-0.018 0.479,-0.048 0.714,-0.082 0.219,-0.03 0.439,-0.073 0.657,-0.113 0.221,-0.044 0.44,-0.092 0.659,-0.146 0.242,-0.057 0.481,-0.126 0.722,-0.199 0.123,-0.036 0.246,-0.061 0.373,-0.105 0.074,-0.022 0.145,-0.053 0.214,-0.084 0.076,-0.027 0.153,-0.059 0.229,-0.088 l -1.664,-1.706 c -0.053,0.015 -0.105,0.038 -0.16,0.052 z"
       id="path3572"
       inkscape:connector-curvature="0"
       /><path
       d="m 221.619,134.618 0.005,-0.001 c 0.545,-2.419 1.836,-4.631 3.709,-6.283 0.078,-0.069 0.162,-0.134 0.243,-0.201 0.1,-0.083 0.197,-0.168 0.301,-0.248 0.134,-0.102 0.272,-0.203 0.41,-0.304 0.053,-0.036 0.106,-0.076 0.161,-0.116 0.165,-0.108 0.329,-0.214 0.501,-0.321 0.75,-0.457 1.553,-0.844 2.42,-1.131 1.457,-0.488 2.935,-0.672 4.377,-0.589 l 0.006,0.008 c 0.019,-0.002 0.043,0.004 0.068,0.004 l 0.129,1.677 1.279,-1.494 1.219,-1.422 -0.794,-0.68 -2.125,-1.815 0.124,1.593 c -1.634,-0.072 -3.312,0.143 -4.96,0.696 -1.931,0.647 -3.629,1.678 -5.033,2.982 -0.219,0.204 -0.428,0.413 -0.637,0.63 -0.008,0.014 -0.023,0.021 -0.035,0.037 -0.426,0.451 -0.823,0.941 -1.192,1.457 -0.002,0.005 -0.002,0.006 -0.003,0.011 -0.183,0.25 -0.358,0.515 -0.52,0.781 -0.002,10e-4 0,0.006 -0.004,0.008 -0.069,0.11 -0.141,0.213 -0.206,0.328 -0.935,1.622 -1.497,3.35 -1.73,5.097 l 2.261,-0.581 c 0.009,-0.042 0.018,-0.083 0.026,-0.123 z"
       id="path3574"
       inkscape:connector-curvature="0"
       /><path
       d="m 245.146,144.128 c 0.059,-0.105 0.104,-0.22 0.167,-0.325 l -0.009,-0.004 c 1.777,-3.263 2.258,-7.224 0.985,-11.029 -0.229,-0.69 -0.514,-1.347 -0.839,-1.971 -0.005,-0.011 -0.011,-0.023 -0.015,-0.031 -0.135,-0.256 -0.276,-0.51 -0.425,-0.754 -0.092,-0.159 -0.197,-0.311 -0.294,-0.463 -0.064,-0.093 -0.12,-0.194 -0.186,-0.283 -0.719,-1.038 -1.581,-1.988 -2.576,-2.817 l -0.661,2.277 c 0.023,0.025 0.056,0.049 0.077,0.076 l -0.001,0.006 c 0.467,0.463 0.9,0.964 1.293,1.505 0.022,0.037 0.049,0.076 0.075,0.116 0.1,0.136 0.19,0.277 0.281,0.415 0.077,0.117 0.146,0.237 0.217,0.359 0.045,0.07 0.085,0.138 0.127,0.213 0.979,1.755 1.502,3.745 1.503,5.763 l 0.004,0.002 c -0.002,2.146 -0.608,4.229 -1.688,6.032 l -0.085,-0.07 -1.132,-0.971 0.181,2.32 0.116,1.51 1.489,-0.118 2.336,-0.182 -1.264,-1.077 c 0.113,-0.166 0.221,-0.326 0.324,-0.499 z"
       id="path3576"
       inkscape:connector-curvature="0"
       /></g><g
     id="g3614"
     transform="translate(-58.644848,-69.885411)"  style="opacity:0"><polygon
       points="60.528,187.55 62.485,194.788 64.401,194.788 65.394,189.798 65.414,189.798 66.411,194.788 68.296,194.788 70.295,187.55 68.407,187.55 67.381,192.844 67.361,192.844 66.298,187.55 64.524,187.55 63.459,192.844 63.435,192.844 62.412,187.55 "
       id="polygon3616"
       style="fill:#c1c1c1" /><path
       d="m 74.233,187.396 c -2.283,0 -3.568,1.675 -3.568,3.771 0,2.101 1.286,3.776 3.568,3.776 2.281,0 3.57,-1.676 3.57,-3.776 0,-2.097 -1.289,-3.771 -3.57,-3.771 z m 0,5.921 c -1.216,0 -1.684,-1.074 -1.684,-2.151 0,-1.072 0.467,-2.146 1.684,-2.146 1.215,0 1.682,1.074 1.682,2.146 0,1.077 -0.467,2.151 -1.682,2.151 z"
       id="path3618"
       inkscape:connector-curvature="0"
       style="fill:#c1c1c1" /><path
       d="m 83.91,191.421 0,-0.021 c 0.76,-0.294 1.141,-1.031 1.141,-1.814 0,-1.461 -1.26,-2.035 -2.54,-2.035 l -3.693,0 0,7.238 1.889,0 0,-2.636 1.428,0 c 0.885,0 1.007,0.748 1.054,1.48 0.024,0.202 0.054,0.911 0.218,1.155 l 1.86,0 c -0.254,-0.264 -0.282,-1.326 -0.302,-1.635 -0.057,-0.69 -0.284,-1.55 -1.055,-1.732 z m -1.622,-0.729 -1.581,0 0,-1.633 1.502,0 c 0.526,0 0.952,0.242 0.952,0.778 0,0.548 -0.304,0.855 -0.873,0.855 z"
       id="path3620"
       inkscape:connector-curvature="0"
       style="fill:#c1c1c1" /><polygon
       points="88.023,187.55 86.14,187.55 86.14,194.788 88.023,194.788 88.023,192.558 88.792,191.747 90.743,194.788 93.083,194.788 90.072,190.398 92.75,187.55 90.409,187.55 88.023,190.322 "
       id="polygon3622"
       style="fill:#c1c1c1" /><path
       d="m 97.43,190.432 c -1.054,-0.297 -2.1,-0.4 -2.1,-0.954 0,-0.48 0.508,-0.619 0.915,-0.619 0.58,0 1.196,0.212 1.165,0.869 l 1.89,0 c -0.012,-1.632 -1.462,-2.332 -2.903,-2.332 -1.359,0 -2.951,0.619 -2.951,2.2 0,1.328 1.083,1.797 2.122,2.093 1.042,0.292 2.079,0.416 2.079,1.049 0,0.541 -0.59,0.741 -1.158,0.741 -0.801,0 -1.331,-0.27 -1.369,-1.125 l -1.885,0 c 0.009,1.856 1.481,2.589 3.142,2.589 1.591,0 3.156,-0.587 3.156,-2.425 -0.002,-1.306 -1.058,-1.794 -2.103,-2.086 z"
       id="path3624"
       inkscape:connector-curvature="0"
       style="fill:#c1c1c1" /><path
       d="m 103.849,187.55 -3.44,0 0,7.238 1.886,0 0,-2.413 1.554,0 c 1.591,0 2.611,-0.7 2.611,-2.496 0,-1.713 -1.264,-2.329 -2.611,-2.329 z m -0.286,3.365 -1.268,0 0,-1.855 1.268,0 c 0.578,0 1.014,0.275 1.014,0.953 0,0.66 -0.423,0.902 -1.014,0.902 z"
       id="path3626"
       inkscape:connector-curvature="0"
       style="fill:#c1c1c1" /><path
       d="m 108.571,187.55 -2.708,7.238 1.935,0 0.457,-1.298 2.526,0 0.447,1.298 1.967,0 -2.71,-7.238 -1.914,0 z m 0.121,4.542 0.821,-2.54 0.02,0 0.8,2.54 -1.641,0 z"
       id="path3628"
       inkscape:connector-curvature="0"
       style="fill:#c1c1c1" /><path
       d="m 117.083,189.02 c 0.792,0 1.361,0.384 1.458,1.115 l 1.887,0 c -0.048,-1.747 -1.742,-2.739 -3.307,-2.739 -2.192,0 -3.611,1.675 -3.611,3.771 0,2.101 1.418,3.776 3.611,3.776 1.836,0 3.206,-1.097 3.307,-2.962 l -1.887,0 c -0.068,0.831 -0.578,1.337 -1.458,1.337 -1.219,0 -1.684,-1.074 -1.684,-2.151 0,-1.073 0.464,-2.147 1.684,-2.147 z"
       id="path3630"
       inkscape:connector-curvature="0"
       style="fill:#c1c1c1" /><polygon
       points="123.314,190.322 123.314,189.06 127.199,189.06 127.199,187.55 121.432,187.55 121.432,194.788 127.3,194.788 127.3,193.168 123.314,193.168 123.314,191.789 126.865,191.789 126.865,190.322 "
       id="polygon3632"
       style="fill:#c1c1c1" /><path
       d="m 134.91,189.02 c 0.792,0 1.359,0.384 1.46,1.115 l 1.886,0 c -0.051,-1.747 -1.745,-2.739 -3.301,-2.739 -2.197,0 -3.612,1.675 -3.612,3.771 0,2.101 1.415,3.776 3.612,3.776 1.829,0 3.202,-1.097 3.301,-2.962 l -1.886,0 c -0.07,0.831 -0.579,1.337 -1.46,1.337 -1.215,0 -1.681,-1.074 -1.681,-2.151 0,-1.073 0.466,-2.147 1.681,-2.147 z"
       id="path3634"
       inkscape:connector-curvature="0"
       style="fill:#c1c1c1" /><path
       d="m 142.552,187.396 c -2.281,0 -3.567,1.675 -3.567,3.771 0,2.101 1.286,3.776 3.567,3.776 2.281,0 3.57,-1.676 3.57,-3.776 0,-2.097 -1.289,-3.771 -3.57,-3.771 z m 0,5.921 c -1.216,0 -1.685,-1.074 -1.685,-2.151 0,-1.072 0.468,-2.146 1.685,-2.146 1.218,0 1.684,1.074 1.684,2.146 0,1.077 -0.466,2.151 -1.684,2.151 z"
       id="path3636"
       inkscape:connector-curvature="0"
       style="fill:#c1c1c1" /><polygon
       points="152.405,194.788 152.405,193.168 149.026,193.168 149.026,187.55 147.14,187.55 147.14,194.788 "
       id="polygon3638"
       style="fill:#c1c1c1" /><polygon
       points="158.598,194.788 158.598,193.168 155.219,193.168 155.219,187.55 153.332,187.55 153.332,194.788 "
       id="polygon3640"
       style="fill:#c1c1c1" /><path
       d="m 161.496,187.55 -2.708,7.238 1.938,0 0.453,-1.298 2.525,0 0.447,1.298 1.967,0 -2.708,-7.238 -1.914,0 z m 0.119,4.542 0.821,-2.54 0.02,0 0.801,2.54 -1.642,0 z"
       id="path3642"
       inkscape:connector-curvature="0"
       style="fill:#c1c1c1" /><path
       d="m 171.712,190.821 c 0.569,-0.28 0.955,-0.809 0.955,-1.46 0,-1.509 -1.373,-1.838 -2.617,-1.812 l -3.389,0 0,7.238 3.479,0 c 1.552,0 2.818,-0.526 2.818,-2.25 0,-0.819 -0.475,-1.489 -1.246,-1.716 z m -3.165,-1.811 1.461,0 c 0.399,0 0.769,0.174 0.769,0.698 0,0.518 -0.443,0.69 -0.769,0.69 l -1.461,0 0,-1.388 z m 1.512,4.268 -1.512,0 0,-1.665 1.512,0 c 0.571,0 1.013,0.217 1.013,0.85 -0.001,0.604 -0.412,0.815 -1.013,0.815 z"
       id="path3644"
       inkscape:connector-curvature="0"
       style="fill:#c1c1c1" /><path
       d="m 177.276,187.396 c -2.284,0 -3.575,1.675 -3.575,3.771 0,2.101 1.291,3.776 3.575,3.776 2.278,0 3.569,-1.676 3.569,-3.776 0.001,-2.097 -1.29,-3.771 -3.569,-3.771 z m 0,5.921 c -1.221,0 -1.688,-1.074 -1.688,-2.151 0,-1.072 0.467,-2.146 1.688,-2.146 1.218,0 1.68,1.074 1.68,2.146 0,1.077 -0.462,2.151 -1.68,2.151 z"
       id="path3646"
       inkscape:connector-curvature="0"
       style="fill:#c1c1c1" /><path
       d="m 186.956,191.421 0,-0.021 c 0.759,-0.294 1.133,-1.031 1.133,-1.814 0,-1.461 -1.256,-2.035 -2.532,-2.035 l -3.691,0 0,7.238 1.882,0 0,-2.636 1.434,0 c 0.88,0 1.004,0.748 1.053,1.48 0.022,0.202 0.054,0.911 0.212,1.155 l 1.868,0 c -0.253,-0.264 -0.284,-1.326 -0.303,-1.635 -0.06,-0.69 -0.287,-1.55 -1.056,-1.732 z m -1.622,-0.729 -1.587,0 0,-1.633 1.504,0 c 0.524,0 0.953,0.242 0.953,0.778 0,0.548 -0.306,0.855 -0.87,0.855 z"
       id="path3648"
       inkscape:connector-curvature="0"
       style="fill:#c1c1c1" /><path
       d="m 191.146,187.55 -2.706,7.238 1.936,0 0.457,-1.298 2.526,0 0.446,1.298 1.967,0 -2.706,-7.238 -1.92,0 z m 0.125,4.542 0.821,-2.54 0.019,0 0.797,2.54 -1.637,0 z"
       id="path3650"
       inkscape:connector-curvature="0"
       style="fill:#c1c1c1" /><polygon
       points="194.919,187.55 194.919,189.169 197.077,189.169 197.077,194.788 198.967,194.788 198.967,189.169 201.124,189.169 201.124,187.55 "
       id="polygon3652"
       style="fill:#c1c1c1" /><rect
       x="201.953"
       y="187.55"
       width="1.8839999"
       height="7.2379999"
       id="rect3654"
       style="fill:#c1c1c1" /><polygon
       points="209.212,187.55 207.789,192.93 207.767,192.93 206.348,187.55 204.378,187.55 206.668,194.788 208.834,194.788 211.177,187.55 "
       id="polygon3656"
       style="fill:#c1c1c1" /><polygon
       points="217.145,190.322 213.601,190.322 213.601,189.06 217.482,189.06 217.482,187.55 211.712,187.55 211.712,194.788 217.582,194.788 217.582,193.168 213.601,193.168 213.601,191.789 217.145,191.789 "
       id="polygon3658"
       style="fill:#c1c1c1" /></g>

       <g style="fill: #7cafd0">
       <polygon
     points="72.99,113.262 60.671,113.262 60.671,160.553 72.99,160.553 72.99,141.078 89.215,141.078 89.215,160.553 101.534,160.553 101.534,113.262 89.215,113.262 89.215,130.48 72.99,130.48 "
     id="polygon3660"
     transform="translate(-58.615431,-69.885411)" /><path
     d="m 60.805566,43.37659 -17.684,47.291 12.649,0 2.981,-8.479 16.492,0 2.915,8.479 12.846,0 -17.68,-47.291 -12.519,0 z m 0.793,29.672 5.365,-16.558 0.133,0 5.233,16.558 -10.731,0 z"
     id="path3662"
     inkscape:connector-curvature="0"
     /><polygon
     points="163.004,147.836 156.314,113.262 143.994,113.262 156.777,160.553 169.295,160.553 175.787,127.967 175.918,127.967 182.408,160.553 194.728,160.553 207.774,113.262 195.457,113.262 188.767,147.836 188.635,147.836 181.68,113.262 170.09,113.262 163.136,147.836 "
     id="polygon3664"

     transform="translate(-58.615431,-69.885411)" /><path
     d="m 179.46357,87.92759 -3.58,-5.038 c -0.745,0.111 -1.503,0.179 -2.277,0.179 -8.854,0 -16.034,-7.177 -16.034,-16.032 0,-8.854 7.18,-16.032 16.034,-16.032 1.028,0 2.03,0.11 3.004,0.298 l 4.578,-7.313 c -2.681,-1.001 -5.567,-1.573 -8.595,-1.573 -13.6,0 -24.623,11.024 -24.623,24.621 0,13.597 11.023,24.622 24.623,24.622 2.972,0 5.807,-0.554 8.444,-1.517 l -1.614,-2.201 c 0.014,-0.005 0.026,-0.01 0.04,-0.014 z"
     id="path3666"
     inkscape:connector-curvature="0"
     />
     </g>


     <g
     id="g3578"
     transform="matrix(1.0567107,0,0,1.1186833,-62.190129,-90.57263)" style="opacity:0"><polygon
       points="68.824,174.502 66.376,174.502 66.376,177.926 63.151,177.926 63.151,174.502 60.704,174.502 60.704,183.902 63.151,183.902 63.151,180.032 66.376,180.032 66.376,183.902 68.824,183.902 "
       id="polygon3580"
       style="fill:#c1c1c1" /><polygon
       points="78.097,181.791 72.925,181.791 72.925,180.008 77.532,180.008 77.532,178.104 72.925,178.104 72.925,176.468 77.966,176.468 77.966,174.502 70.476,174.502 70.476,183.902 78.097,183.902 "
       id="polygon3582"
       style="fill:#c1c1c1" /><path
       d="m 82.042,174.502 -3.515,9.4 2.513,0 0.592,-1.69 3.279,0 0.579,1.69 2.55,0 -3.511,-9.4 -2.487,0 z m 0.155,5.898 1.069,-3.297 0.024,0 1.042,3.297 -2.135,0 z"
       id="path3584"
       inkscape:connector-curvature="0"
       style="fill:#c1c1c1" /><polygon
       points="95.577,181.791 91.194,181.791 91.194,174.502 88.746,174.502 88.746,183.902 95.577,183.902 "
       id="polygon3586"
       style="fill:#c1c1c1" /><polygon
       points="97.286,183.902 99.733,183.902 99.733,176.604 102.539,176.604 102.539,174.502 94.484,174.502 94.484,176.604 97.286,176.604 "
       id="polygon3588"
       style="fill:#c1c1c1" /><polygon
       points="111.707,174.502 109.258,174.502 109.258,177.926 106.036,177.926 106.036,174.502 103.585,174.502 103.585,183.902 106.036,183.902 106.036,180.032 109.258,180.032 109.258,183.902 111.707,183.902 "
       id="polygon3590"
       style="fill:#c1c1c1" /><path
       d="m 120.056,174.502 -3.515,9.4 2.516,0 0.591,-1.69 3.277,0 0.582,1.69 2.554,0 -3.515,-9.4 -2.49,0 z m 0.158,5.898 1.066,-3.297 0.026,0 1.038,3.297 -2.13,0 z"
       id="path3592"
       inkscape:connector-curvature="0"
       style="fill:#c1c1c1" /><path
       d="m 131.675,178.244 c -1.371,-0.386 -2.726,-0.518 -2.726,-1.239 0,-0.624 0.656,-0.802 1.184,-0.802 0.753,0 1.554,0.275 1.516,1.13 l 2.448,0 c -0.012,-2.119 -1.896,-3.027 -3.764,-3.027 -1.764,0 -3.829,0.803 -3.829,2.855 0,1.726 1.404,2.332 2.748,2.715 1.355,0.382 2.698,0.542 2.698,1.363 0,0.702 -0.761,0.963 -1.5,0.963 -1.039,0 -1.725,-0.353 -1.778,-1.46 l -2.445,0 c 0.012,2.406 1.919,3.355 4.078,3.355 2.067,0 4.094,-0.763 4.094,-3.145 -0.001,-1.696 -1.371,-2.33 -2.724,-2.708 z"
       id="path3594"
       inkscape:connector-curvature="0"
       style="fill:#c1c1c1" /><path
       d="m 140.45,178.244 c -1.371,-0.386 -2.727,-0.518 -2.727,-1.239 0,-0.624 0.657,-0.802 1.187,-0.802 0.748,0 1.553,0.275 1.509,1.13 l 2.449,0 c -0.012,-2.119 -1.894,-3.027 -3.765,-3.027 -1.761,0 -3.829,0.803 -3.829,2.855 0,1.726 1.41,2.332 2.75,2.715 1.357,0.382 2.7,0.542 2.7,1.363 0,0.702 -0.764,0.963 -1.499,0.963 -1.042,0 -1.726,-0.353 -1.778,-1.46 l -2.449,0 c 0.013,2.406 1.922,3.355 4.081,3.355 2.067,0 4.094,-0.763 4.094,-3.145 0,-1.696 -1.369,-2.33 -2.723,-2.708 z"
       id="path3596"
       inkscape:connector-curvature="0"
       style="fill:#c1c1c1" /><polygon
       points="151.934,181.791 146.762,181.791 146.762,180.008 151.367,180.008 151.367,178.104 146.762,178.104 146.762,176.468 151.8,176.468 151.8,174.502 144.311,174.502 144.311,183.902 151.934,183.902 "
       id="polygon3598"
       style="fill:#c1c1c1" /><path
       d="m 158.232,178.244 c -1.368,-0.386 -2.722,-0.518 -2.722,-1.239 0,-0.624 0.657,-0.802 1.182,-0.802 0.751,0 1.553,0.275 1.513,1.13 l 2.448,0 c -0.014,-2.119 -1.893,-3.027 -3.766,-3.027 -1.762,0 -3.829,0.803 -3.829,2.855 0,1.726 1.408,2.332 2.753,2.715 1.354,0.382 2.699,0.542 2.699,1.363 0,0.702 -0.767,0.963 -1.506,0.963 -1.035,0 -1.721,-0.353 -1.776,-1.46 l -2.445,0 c 0.014,2.406 1.923,3.355 4.081,3.355 2.063,0 4.091,-0.763 4.091,-3.145 0,-1.696 -1.365,-2.33 -2.723,-2.708 z"
       id="path3600"
       inkscape:connector-curvature="0"
       style="fill:#c1c1c1" /><path
       d="m 167.006,178.244 c -1.367,-0.386 -2.726,-0.518 -2.726,-1.239 0,-0.624 0.658,-0.802 1.185,-0.802 0.75,0 1.553,0.275 1.516,1.13 l 2.447,0 c -0.015,-2.119 -1.896,-3.027 -3.765,-3.027 -1.763,0 -3.829,0.803 -3.829,2.855 0,1.726 1.408,2.332 2.751,2.715 1.357,0.382 2.695,0.542 2.695,1.363 0,0.702 -0.762,0.963 -1.499,0.963 -1.039,0 -1.723,-0.353 -1.778,-1.46 l -2.449,0 c 0.018,2.406 1.925,3.355 4.085,3.355 2.063,0 4.092,-0.763 4.092,-3.145 -0.001,-1.696 -1.371,-2.33 -2.725,-2.708 z"
       id="path3602"
       inkscape:connector-curvature="0"
       style="fill:#c1c1c1" /><polygon
       points="179.032,176.766 179.059,176.766 179.059,183.902 181.361,183.902 181.361,174.502 177.757,174.502 176.135,180.77 176.107,180.77 174.491,174.502 170.883,174.502 170.883,183.902 173.188,183.902 173.188,176.766 173.215,176.766 175.188,183.902 177.057,183.902 "
       id="polygon3604"
       style="fill:#c1c1c1" /><polygon
       points="190.674,181.791 185.5,181.791 185.5,180.008 190.105,180.008 190.105,178.104 185.5,178.104 185.5,176.468 190.542,176.468 190.542,174.502 183.053,174.502 183.053,183.902 190.674,183.902 "
       id="polygon3606"
       style="fill:#c1c1c1" /><polygon
       points="200.144,174.502 197.84,174.502 197.84,180.293 197.814,180.293 194.552,174.502 192.036,174.502 192.036,183.902 194.341,183.902 194.341,178.043 194.368,178.043 197.631,183.902 200.144,183.902 "
       id="polygon3608"
       style="fill:#c1c1c1" /><polygon
       points="204.01,183.902 206.454,183.902 206.454,176.604 209.26,176.604 209.26,174.502 201.203,174.502 201.203,176.604 204.01,176.604 "
       id="polygon3610"
       style="fill:#c1c1c1" /></g><path
     d="m 224.41657,89.84459 c -1.813,0 -3.456,0.731 -4.654,1.924 l -9.217,-5.225 c 0.055,-0.334 0.105,-0.673 0.105,-1.02 0,-2.179 -1.11,-4.086 -2.787,-5.219 l 0,-26.466 c 2.185,-0.978 3.716,-3.161 3.716,-5.715 0,-0.039 -0.012,-0.072 -0.012,-0.108 l 8.329,-4.722 c 1.186,1.115 2.77,1.809 4.52,1.809 3.643,0 6.607,-2.961 6.607,-6.601 0,-3.644 -2.965,-6.609 -6.607,-6.609 -3.64,0 -6.603,2.965 -6.603,6.609 0,0.02 0.004,0.035 0.004,0.056 l -8.474,4.805 c -1.096,-0.932 -2.494,-1.516 -4.045,-1.516 -1.218,0 -2.348,0.365 -3.305,0.962 l -23.865,-14.128 c 0,-2.546 -1.522,-4.728 -3.7,-5.711 l 0,-9.245 c 2.469,-0.957998 4.229,-3.342001 4.229,-6.144001 0,-3.646 -2.964,-6.607 -6.606,-6.607 -0.066,0 -0.131,0.019 -0.197,0.019 -3.644,0 -6.606,2.964 -6.606,6.606 0,2.802 1.762,5.186003 4.229,6.143001 l 0,9.245 c -2.179,0.983 -3.701,3.166 -3.701,5.715 0,0.112 0.023,0.217 0.032,0.332 l -11.792,6.804 0.001,0.002 -5.213,3.007 10.293,0 9.078,-5.241 c 1.07,0.848 2.408,1.339 3.876,1.339 1.388,-0.044 2.658,-0.548 3.679,-1.36 l 8.407,4.855 2.563,1.481 12.426,7.176 c -0.054,0.339 -0.103,0.675 -0.103,1.029 0,2.545 1.518,4.719 3.69,5.706 l 0,25.665 c -2.656,0.73 -4.619,3.137 -4.619,6.029 0,0.623 0.118,1.214 0.287,1.782 l -23.159,13.373 c -0.923,-0.585 -2.008,-0.927 -3.172,-0.964 l 0,-0.011 c -0.011,0 -0.022,0.003 -0.037,0.003 -0.055,-0.003 -0.104,-0.019 -0.16,-0.019 l 0,0.047 c -1.164,0.037 -2.248,0.375 -3.173,0.963 l -9.865,-5.697 -156.7610008,-0.079 0,0.079 -0.29,0 0,5.148 155.6770008,0 8.43,4.868 c -0.052,0.313 -0.096,0.635 -0.096,0.961 0,2.549 1.522,4.732 3.701,5.715 l 0,8.619 c -2.468,0.962 -4.229,3.346 -4.229,6.148 0,3.644 2.963,6.604 6.606,6.604 0.066,0 0.131,-0.016 0.197,-0.016 3.643,0 6.606,-2.963 6.606,-6.609 0,-2.801 -1.76,-5.187 -4.229,-6.146 l 0,-8.623 c 2.178,-0.977 3.7,-3.161 3.7,-5.711 0,-0.329 -0.045,-0.646 -0.096,-0.962 l 23.803,-13.745 c 0.778,0.345 1.63,0.545 2.536,0.545 1.218,0 2.348,-0.362 3.311,-0.964 l 10.141,5.748 c 0.078,3.579 2.998,6.465 6.593,6.465 3.643,0 6.607,-2.958 6.607,-6.601 0,-3.643 -2.963,-6.602 -6.606,-6.602 z"
     id="path3668"
     inkscape:connector-curvature="0"
     style="fill:#af626e" /></svg>
